<svg xmlns="http://www.w3.org/2000/svg" viewBox="0 0 1200 360" width="100%" role="img" aria-labelledby="heroTitle heroDesc">
  <title id="heroTitle">Python 特征工程实践</title>
  <desc id="heroDesc">特征矩阵变换示意:原始特征列经 encode / scale / select / bin / impute 变换为变换后特征列,再送入机器学习模型</desc>

  <defs>
    <marker id="arrowGold" viewBox="0 0 10 10" refX="9" refY="5" markerWidth="9" markerHeight="9" orient="auto-start-reverse">
      <path d="M0,0 L10,5 L0,10 z" fill="#B8860B"/>
    </marker>
    <marker id="arrowMuted" viewBox="0 0 10 10" refX="9" refY="5" markerWidth="9" markerHeight="9" orient="auto-start-reverse">
      <path d="M0,0 L10,5 L0,10 z" fill="#8B8680"/>
    </marker>
  </defs>

  <rect x="0" y="0" width="1200" height="360" rx="26" ry="26" fill="#F4F1EA"/>

  <g id="title-block" transform="translate(56 30)" font-family="-apple-system, BlinkMacSystemFont, 'Segoe UI', Roboto, 'PingFang SC', 'Microsoft YaHei', sans-serif" text-rendering="geometricPrecision">
    <text x="544" y="14" font-family="ui-monospace, SFMono-Regular, Menlo, Consolas, monospace" font-size="14" fill="#8B8680" text-anchor="middle" letter-spacing="2">MACHINE LEARNING · FEATURE ENGINEERING</text>
    <text x="544" y="62" font-size="44" font-weight="700" fill="#1A1A1A" text-anchor="middle">Python 特征工程实践</text>
    <text x="544" y="90" font-size="18" fill="#8B8680" text-anchor="middle">编码 · 缩放 · 选择 · 离散化 · 缺失值 · scikit-learn</text>
  </g>

  <g id="matrix-flow" transform="translate(56 130)">
    <g id="matrix-original" transform="translate(0 0)">
      <text x="160" y="14" font-family="ui-monospace, SFMono-Regular, Menlo, Consolas, monospace" font-size="12" fill="#8B8680" text-anchor="middle" letter-spacing="1">原始特征</text>
      <g font-family="ui-monospace, SFMono-Regular, Menlo, Consolas, monospace" font-size="11" fill="#8B8680" text-anchor="middle">
        <text x="40" y="34">f1</text>
        <text x="120" y="34">f2</text>
        <text x="200" y="34">f3</text>
        <text x="280" y="34">f4</text>
      </g>
      <g stroke="#5B7553" stroke-width="1" fill="#FFFFFF">
        <rect x="0" y="42" width="80" height="32"/>
        <rect x="80" y="42" width="80" height="32"/>
        <rect x="160" y="42" width="80" height="32"/>
        <rect x="240" y="42" width="80" height="32"/>
        <rect x="0" y="74" width="80" height="32"/>
        <rect x="80" y="74" width="80" height="32"/>
        <rect x="160" y="74" width="80" height="32"/>
        <rect x="240" y="74" width="80" height="32"/>
        <rect x="0" y="106" width="80" height="32"/>
        <rect x="80" y="106" width="80" height="32"/>
        <rect x="160" y="106" width="80" height="32"/>
        <rect x="240" y="106" width="80" height="32"/>
        <rect x="0" y="138" width="80" height="32"/>
        <rect x="80" y="138" width="80" height="32"/>
        <rect x="160" y="138" width="80" height="32"/>
        <rect x="240" y="138" width="80" height="32"/>
      </g>
      <g stroke="#5B7553" stroke-width="1.4" stroke-linecap="round" opacity="0.55">
        <line x1="20" y1="58" x2="60" y2="58"/>
        <line x1="100" y1="58" x2="120" y2="58"/>
        <line x1="180" y1="58" x2="220" y2="58"/>
        <line x1="260" y1="58" x2="290" y2="58"/>
        <line x1="15" y1="90" x2="45" y2="90"/>
        <line x1="95" y1="90" x2="140" y2="90"/>
        <line x1="175" y1="90" x2="200" y2="90"/>
        <line x1="255" y1="90" x2="295" y2="90"/>
        <line x1="25" y1="122" x2="55" y2="122"/>
        <line x1="105" y1="122" x2="135" y2="122"/>
        <line x1="185" y1="122" x2="235" y2="122"/>
        <line x1="265" y1="122" x2="285" y2="122"/>
        <line x1="18" y1="154" x2="52" y2="154"/>
        <line x1="98" y1="154" x2="128" y2="154"/>
        <line x1="178" y1="154" x2="208" y2="154"/>
        <line x1="258" y1="154" x2="298" y2="154"/>
      </g>
    </g>

    <g id="transform-arrow" transform="translate(410 0)">
      <text x="75" y="76" font-family="ui-monospace, SFMono-Regular, Menlo, Consolas, monospace" font-size="12" fill="#B8860B" text-anchor="middle" letter-spacing="0.5">encode / scale /</text>
      <text x="75" y="92" font-family="ui-monospace, SFMono-Regular, Menlo, Consolas, monospace" font-size="12" fill="#B8860B" text-anchor="middle" letter-spacing="0.5">select / bin / impute</text>
      <line x1="0" y1="116" x2="140" y2="116" stroke="#B8860B" stroke-width="1.5" marker-end="url(#arrowGold)"/>
    </g>

    <g id="matrix-transformed" transform="translate(560 0)">
      <text x="160" y="14" font-family="ui-monospace, SFMono-Regular, Menlo, Consolas, monospace" font-size="12" fill="#8B8680" text-anchor="middle" letter-spacing="1">变换后特征</text>
      <g font-family="ui-monospace, SFMono-Regular, Menlo, Consolas, monospace" font-size="11" fill="#8B8680" text-anchor="middle">
        <text x="40" y="34">f1'</text>
        <text x="120" y="34">f2'</text>
        <text x="200" y="34">f3'</text>
        <text x="280" y="34">f4'</text>
      </g>
      <g stroke="#B8860B" stroke-width="1" fill="#B8860B" fill-opacity="0.14">
        <rect x="0" y="42" width="80" height="32"/>
        <rect x="80" y="42" width="80" height="32"/>
        <rect x="160" y="42" width="80" height="32"/>
        <rect x="240" y="42" width="80" height="32"/>
        <rect x="0" y="74" width="80" height="32"/>
        <rect x="80" y="74" width="80" height="32"/>
        <rect x="160" y="74" width="80" height="32"/>
        <rect x="240" y="74" width="80" height="32"/>
        <rect x="0" y="106" width="80" height="32"/>
        <rect x="80" y="106" width="80" height="32"/>
        <rect x="160" y="106" width="80" height="32"/>
        <rect x="240" y="106" width="80" height="32"/>
        <rect x="0" y="138" width="80" height="32"/>
        <rect x="80" y="138" width="80" height="32"/>
        <rect x="160" y="138" width="80" height="32"/>
        <rect x="240" y="138" width="80" height="32"/>
      </g>
      <g stroke="#B8860B" stroke-width="1.4" stroke-linecap="round" opacity="0.7">
        <line x1="22" y1="58" x2="58" y2="58"/>
        <line x1="102" y1="58" x2="138" y2="58"/>
        <line x1="182" y1="58" x2="218" y2="58"/>
        <line x1="262" y1="58" x2="298" y2="58"/>
        <line x1="22" y1="90" x2="58" y2="90"/>
        <line x1="102" y1="90" x2="138" y2="90"/>
        <line x1="182" y1="90" x2="218" y2="90"/>
        <line x1="262" y1="90" x2="298" y2="90"/>
        <line x1="22" y1="122" x2="58" y2="122"/>
        <line x1="102" y1="122" x2="138" y2="122"/>
        <line x1="182" y1="122" x2="218" y2="122"/>
        <line x1="262" y1="122" x2="298" y2="122"/>
        <line x1="22" y1="154" x2="58" y2="154"/>
        <line x1="102" y1="154" x2="138" y2="154"/>
        <line x1="182" y1="154" x2="218" y2="154"/>
        <line x1="262" y1="154" x2="298" y2="154"/>
      </g>
    </g>

    <g id="model-arrow" transform="translate(960 0)">
      <line x1="0" y1="116" x2="80" y2="116" stroke="#8B8680" stroke-width="1.5" marker-end="url(#arrowMuted)"/>
      <text x="40" y="104" font-family="ui-monospace, SFMono-Regular, Menlo, Consolas, monospace" font-size="12" fill="#8B8680" text-anchor="middle" letter-spacing="0.5">→ model</text>
    </g>
  </g>

  <text x="600" y="348" font-family="ui-monospace, SFMono-Regular, Menlo, Consolas, monospace" font-size="12" fill="#8B8680" text-anchor="middle" letter-spacing="1">pandas · numpy · scikit-learn · 鸢尾花 · Statlog Vehicle · 作者 liem</text>
</svg>
