<svg xmlns="http://www.w3.org/2000/svg" viewBox="0 0 1200 360" width="100%" role="img" aria-labelledby="heroTitle heroDesc">
  <title id="heroTitle">Python 特征工程实践</title>
  <desc id="heroDesc">特征矩阵变换示意:原始特征列经 encode / scale / select / bin / impute 变换为变换后特征列,再送入机器学习模型</desc>

  <defs>
    <marker id="arrowGold" viewBox="0 0 10 10" refX="9" refY="5" markerWidth="9" markerHeight="9" orient="auto-start-reverse">
      <path d="M0,0 L10,5 L0,10 z" fill="#B8860B"/>
    </marker>
    <marker id="arrowMuted" viewBox="0 0 10 10" refX="9" refY="5" markerWidth="9" markerHeight="9" orient="auto-start-reverse">
      <path d="M0,0 L10,5 L0,10 z" fill="#8B8680"/>
    </marker>
  </defs>

  <rect x="0" y="0" width="1200" height="360" rx="26" ry="26" fill="#F4F1EA"/>

  <g id="title-block" transform="translate(0 36)" font-family="-apple-system, BlinkMacSystemFont, 'Segoe UI', Roboto, 'PingFang SC', 'Microsoft YaHei', sans-serif" text-rendering="geometricPrecision">
    <text x="600" y="14" font-family="ui-monospace, SFMono-Regular, Menlo, Consolas, monospace" font-size="13" fill="#8B8680" text-anchor="middle" letter-spacing="3">MACHINE LEARNING / FEATURE ENGINEERING</text>
    <text x="600" y="64" font-size="44" font-weight="700" fill="#1A1A1A" text-anchor="middle">Python 特征工程实践</text>
    <text x="600" y="92" font-size="17" fill="#5B7553" text-anchor="middle">把特征列从原始形态变换为模型可用的形态</text>
  </g>

  <g id="matrix-flow" transform="translate(96 150)">
    <g id="matrix-original" transform="translate(0 0)">
      <text x="160" y="14" font-family="ui-monospace, SFMono-Regular, Menlo, Consolas, monospace" font-size="12" fill="#8B8680" text-anchor="middle" letter-spacing="1">原始特征</text>
      <g font-family="ui-monospace, SFMono-Regular, Menlo, Consolas, monospace" font-size="11" fill="#8B8680" text-anchor="middle">
        <text x="40" y="34">f1</text>
        <text x="120" y="34">f2</text>
        <text x="200" y="34">f3</text>
        <text x="280" y="34">f4</text>
      </g>
      <g stroke="#5B7553" stroke-width="1" fill="#FFFFFF">
        <rect x="0" y="42" width="80" height="30"/>
        <rect x="80" y="42" width="80" height="30"/>
        <rect x="160" y="42" width="80" height="30"/>
        <rect x="240" y="42" width="80" height="30"/>
        <rect x="0" y="72" width="80" height="30"/>
        <rect x="80" y="72" width="80" height="30"/>
        <rect x="160" y="72" width="80" height="30"/>
        <rect x="240" y="72" width="80" height="30"/>
        <rect x="0" y="102" width="80" height="30"/>
        <rect x="80" y="102" width="80" height="30"/>
        <rect x="160" y="102" width="80" height="30"/>
        <rect x="240" y="102" width="80" height="30"/>
        <rect x="0" y="132" width="80" height="30"/>
        <rect x="80" y="132" width="80" height="30"/>
        <rect x="160" y="132" width="80" height="30"/>
        <rect x="240" y="132" width="80" height="30"/>
      </g>
      <g stroke="#5B7553" stroke-width="1.4" stroke-linecap="round" opacity="0.55">
        <line x1="20" y1="57" x2="60" y2="57"/>
        <line x1="100" y1="57" x2="120" y2="57"/>
        <line x1="180" y1="57" x2="220" y2="57"/>
        <line x1="260" y1="57" x2="290" y2="57"/>
        <line x1="15" y1="87" x2="45" y2="87"/>
        <line x1="95" y1="87" x2="140" y2="87"/>
        <line x1="175" y1="87" x2="200" y2="87"/>
        <line x1="255" y1="87" x2="295" y2="87"/>
        <line x1="25" y1="117" x2="55" y2="117"/>
        <line x1="105" y1="117" x2="135" y2="117"/>
        <line x1="185" y1="117" x2="235" y2="117"/>
        <line x1="265" y1="117" x2="285" y2="117"/>
        <line x1="18" y1="147" x2="52" y2="147"/>
        <line x1="98" y1="147" x2="128" y2="147"/>
        <line x1="178" y1="147" x2="208" y2="147"/>
        <line x1="258" y1="147" x2="298" y2="147"/>
      </g>
    </g>

    <g id="transform-arrow" transform="translate(384 0)">
      <text x="80" y="76" font-family="ui-monospace, SFMono-Regular, Menlo, Consolas, monospace" font-size="12" fill="#B8860B" text-anchor="middle" letter-spacing="0.5">encode / scale</text>
      <text x="80" y="92" font-family="ui-monospace, SFMono-Regular, Menlo, Consolas, monospace" font-size="12" fill="#B8860B" text-anchor="middle" letter-spacing="0.5">select / bin / impute</text>
      <line x1="0" y1="110" x2="160" y2="110" stroke="#B8860B" stroke-width="1.5" marker-end="url(#arrowGold)"/>
    </g>

    <g id="matrix-transformed" transform="translate(560 0)">
      <text x="160" y="14" font-family="ui-monospace, SFMono-Regular, Menlo, Consolas, monospace" font-size="12" fill="#8B8680" text-anchor="middle" letter-spacing="1">变换后特征</text>
      <g font-family="ui-monospace, SFMono-Regular, Menlo, Consolas, monospace" font-size="11" fill="#8B8680" text-anchor="middle">
        <text x="40" y="34">f1'</text>
        <text x="120" y="34">f2'</text>
        <text x="200" y="34">f3'</text>
        <text x="280" y="34">f4'</text>
      </g>
      <g stroke="#B8860B" stroke-width="1" fill="#B8860B" fill-opacity="0.14">
        <rect x="0" y="42" width="80" height="30"/>
        <rect x="80" y="42" width="80" height="30"/>
        <rect x="160" y="42" width="80" height="30"/>
        <rect x="240" y="42" width="80" height="30"/>
        <rect x="0" y="72" width="80" height="30"/>
        <rect x="80" y="72" width="80" height="30"/>
        <rect x="160" y="72" width="80" height="30"/>
        <rect x="240" y="72" width="80" height="30"/>
        <rect x="0" y="102" width="80" height="30"/>
        <rect x="80" y="102" width="80" height="30"/>
        <rect x="160" y="102" width="80" height="30"/>
        <rect x="240" y="102" width="80" height="30"/>
        <rect x="0" y="132" width="80" height="30"/>
        <rect x="80" y="132" width="80" height="30"/>
        <rect x="160" y="132" width="80" height="30"/>
        <rect x="240" y="132" width="80" height="30"/>
      </g>
      <g stroke="#B8860B" stroke-width="1.4" stroke-linecap="round" opacity="0.7">
        <line x1="22" y1="57" x2="58" y2="57"/>
        <line x1="102" y1="57" x2="138" y2="57"/>
        <line x1="182" y1="57" x2="218" y2="57"/>
        <line x1="262" y1="57" x2="298" y2="57"/>
        <line x1="22" y1="87" x2="58" y2="87"/>
        <line x1="102" y1="87" x2="138" y2="87"/>
        <line x1="182" y1="87" x2="218" y2="87"/>
        <line x1="262" y1="87" x2="298" y2="87"/>
        <line x1="22" y1="117" x2="58" y2="117"/>
        <line x1="102" y1="117" x2="138" y2="117"/>
        <line x1="182" y1="117" x2="218" y2="117"/>
        <line x1="262" y1="117" x2="298" y2="117"/>
        <line x1="22" y1="147" x2="58" y2="147"/>
        <line x1="102" y1="147" x2="138" y2="147"/>
        <line x1="182" y1="147" x2="218" y2="147"/>
        <line x1="262" y1="147" x2="298" y2="147"/>
      </g>
    </g>

    <g id="model-arrow" transform="translate(944 0)">
      <line x1="0" y1="110" x2="64" y2="110" stroke="#8B8680" stroke-width="1.5" marker-end="url(#arrowMuted)"/>
      <text x="32" y="98" font-family="ui-monospace, SFMono-Regular, Menlo, Consolas, monospace" font-size="12" fill="#8B8680" text-anchor="middle" letter-spacing="0.5">to model</text>
    </g>
  </g>

  <text x="600" y="346" font-family="ui-monospace, SFMono-Regular, Menlo, Consolas, monospace" font-size="12" fill="#8B8680" text-anchor="middle" letter-spacing="1">pandas / numpy / scikit-learn / 鸢尾花 / Statlog Vehicle</text>
</svg>
